<?xml version="1.0" standalone="no"?>
<!DOCTYPE svg PUBLIC "-//W3C//DTD SVG 20010904//EN"
 "http://www.w3.org/TR/2001/REC-SVG-20010904/DTD/svg10.dtd">
<svg version="1.0" xmlns="http://www.w3.org/2000/svg"
 width="900.000000pt" height="940.000000pt" viewBox="0 0 900.000000 940.000000"
 preserveAspectRatio="xMidYMid meet">

<g transform="translate(0.000000,940.000000) scale(0.100000,-0.100000)"
fill="#000000" stroke="none">
<path d="M4397 9366 c-79 -48 -546 -384 -1777 -1280 -1109 -807 -1944 -1418
-2391 -1753 -196 -146 -207 -157 -219 -199 -18 -64 0 -119 62 -188 l50 -56
4374 0 4374 0 47 43 c50 46 82 105 83 153 0 17 -12 55 -27 85 -27 51 -44 65
-358 292 -181 131 -391 282 -465 336 -461 334 -865 627 -1065 771 -600 436
-1221 885 -1497 1085 -441 319 -603 437 -783 568 -258 188 -305 205 -408 143z
m260 -519 c169 -121 308 -221 578 -417 94 -68 224 -162 290 -210 66 -48 197
-142 290 -210 94 -68 224 -162 290 -210 231 -167 1073 -778 1380 -1002 538
-392 659 -483 660 -493 0 -6 -40 -13 -90 -16 -120 -9 -6626 -11 -6962 -2 -144
3 -260 10 -257 14 5 8 131 101 849 622 242 176 537 391 655 477 118 86 305
222 415 302 110 79 389 282 620 449 794 576 1117 809 1122 809 1 0 73 -51 160
-113z"/>
<path d="M3226 5530 c-298 -29 -689 -156 -804 -263 -77 -70 -77 -79 -77 -1812
1 -1750 0 -1740 81 -1804 69 -54 155 -46 287 29 239 136 478 186 857 177 241
-6 373 -25 532 -78 115 -38 147 -55 224 -112 68 -52 134 -72 200 -63 52 7 88
24 152 73 26 19 71 46 102 60 78 35 263 89 345 102 123 18 373 24 543 12 267
-19 386 -49 560 -142 54 -28 110 -58 126 -67 87 -45 154 -34 233 41 l55 51 -5
1701 c-3 1105 -8 1716 -15 1745 -33 144 -359 281 -812 342 -138 18 -487 15
-640 -6 -243 -33 -446 -89 -593 -163 l-68 -34 -137 55 c-271 110 -509 155
-842 161 -118 2 -255 0 -304 -5z m647 -414 c113 -21 285 -72 359 -106 l65 -29
7 -953 7 -953 43 -42 c95 -92 251 -78 303 27 17 32 18 102 21 977 l3 941 84
36 c240 100 315 111 760 111 412 -1 497 -12 690 -95 l48 -20 -5 -1418 c-3
-779 -9 -1424 -12 -1433 -6 -14 -27 -11 -179 30 l-172 46 -390 0 c-490 0 -548
-9 -866 -135 -136 -54 -156 -57 -216 -27 -76 39 -239 93 -364 121 -198 44
-376 59 -629 53 -246 -5 -371 -22 -560 -75 l-105 -30 -7 47 c-3 25 -7 671 -8
1436 l-2 1390 64 26 c103 42 226 67 458 93 85 10 528 -3 603 -18z"/>
<path d="M734 5501 c-209 -10 -269 -26 -290 -77 -31 -74 -35 -222 -40 -1514
-6 -1309 4 -2095 26 -2192 13 -53 41 -82 99 -98 72 -21 630 -33 963 -22 420
15 425 17 450 170 7 44 12 588 15 1621 4 1553 -1 1913 -29 2011 -16 55 -55 78
-156 91 -94 12 -832 19 -1038 10z m846 -1951 l0 -1550 -395 0 -395 0 0 1550 0
1550 395 0 395 0 0 -1550z"/>
<path d="M7200 5491 c-58 -9 -77 -20 -128 -75 l-42 -46 0 -1823 0 -1824 65
-62 64 -62 643 3 c639 3 643 3 691 25 39 18 52 31 68 67 17 40 20 80 29 448
12 522 12 2309 0 2821 -11 466 -12 471 -97 510 -48 22 -52 22 -648 23 -330 1
-620 -1 -645 -5z m1000 -1941 l0 -1550 -385 0 -385 0 0 1550 0 1550 385 0 385
0 0 -1550z"/>
<path d="M380 1200 c-236 -5 -247 -6 -284 -29 -54 -34 -74 -84 -86 -222 -13
-146 -13 -501 0 -649 12 -139 35 -193 94 -223 34 -18 67 -21 344 -28 169 -4
2130 -8 4357 -8 l4051 -1 62 63 62 63 0 460 0 460 -63 62 -63 62 -4114 -2
c-2263 -1 -4225 -4 -4360 -8z m8218 -578 l2 -202 -4097 2 -4098 3 -3 190 c-1
104 0 195 2 202 4 11 777 13 4098 11 l4093 -3 3 -203z"/>
</g>
</svg>
