<?xml version="1.0" standalone="no"?>
<!DOCTYPE svg PUBLIC "-//W3C//DTD SVG 20010904//EN"
 "http://www.w3.org/TR/2001/REC-SVG-20010904/DTD/svg10.dtd">
<svg version="1.0" xmlns="http://www.w3.org/2000/svg"
 width="880.000000pt" height="796.000000pt" viewBox="0 0 880.000000 796.000000"
 preserveAspectRatio="xMidYMid meet">

<g transform="translate(0.000000,796.000000) scale(0.100000,-0.100000)"
fill="#000000" stroke="none">
<path d="M4335 7549 c-197 -19 -394 -90 -564 -203 -287 -191 -476 -484 -536
-830 -13 -77 -15 -277 -15 -1498 l0 -1408 -77 6 c-154 12 -300 -27 -617 -168
-498 -221 -618 -220 -1141 4 -348 150 -441 176 -594 164 -101 -7 -258 -39
-300 -60 -121 -63 -119 -238 4 -298 l45 -22 92 20 c64 13 130 19 213 18 108 0
130 -4 220 -34 55 -18 179 -67 275 -110 386 -170 547 -209 735 -176 117 20
217 55 455 159 297 129 428 167 572 167 141 -1 248 -32 558 -165 256 -110 345
-141 465 -161 193 -34 317 -2 775 199 407 179 549 173 1049 -44 252 -110 328
-137 435 -155 190 -33 418 18 746 166 181 81 301 128 376 146 135 32 421 0
593 -66 134 -52 236 -28 280 64 26 52 26 89 2 142 -30 65 -110 112 -166 98
-13 -3 -49 6 -83 20 -139 59 -306 90 -482 90 -150 0 -188 -11 -510 -152 -323
-141 -447 -176 -635 -176 -123 -1 -162 7 -298 56 l-57 21 2 1656 c3 1862 -4
1680 80 1842 163 317 556 448 877 294 160 -77 287 -216 342 -371 44 -128 49
-184 49 -604 0 -258 4 -409 11 -427 24 -65 86 -105 161 -105 60 1 108 28 140
80 l23 37 0 450 c0 402 -2 459 -19 535 -83 380 -368 679 -741 776 -83 22 -124
27 -240 27 -82 1 -165 -4 -200 -11 -378 -82 -665 -339 -778 -697 -42 -132 -47
-209 -47 -661 l0 -424 -1126 0 -1126 0 4 363 c4 338 6 367 26 435 101 334 359
575 687 643 72 15 135 19 320 19 219 0 233 1 275 23 66 33 85 65 85 145 0 81
-25 124 -89 153 -36 16 -66 18 -241 17 -110 0 -240 -5 -290 -9z m1475 -2524
l0 -395 -1125 0 -1125 0 0 395 0 395 1125 0 1125 0 0 -395z m-7 -734 c4 0 7
-177 7 -392 0 -369 -1 -391 -17 -384 -155 64 -325 105 -432 105 -132 0 -273
-42 -546 -162 -518 -228 -643 -230 -1113 -23 -114 50 -152 71 -148 82 3 8 6
185 6 393 l0 379 23 3 c20 3 2203 2 2220 -1z"/>
<path d="M665 2474 c-38 -7 -79 -18 -90 -23 -11 -5 -33 -12 -50 -16 -76 -17
-133 -104 -122 -185 9 -72 79 -139 145 -142 15 -1 56 7 92 18 50 14 97 19 200
18 125 0 142 -2 232 -32 54 -18 177 -68 275 -111 361 -158 467 -187 655 -178
156 7 223 29 608 198 209 91 351 129 490 129 155 0 248 -27 575 -167 326 -140
404 -163 565 -163 156 0 264 32 599 179 100 44 226 95 280 113 92 31 103 33
246 32 133 0 160 -3 238 -27 95 -29 221 -79 453 -180 205 -89 311 -117 441
-117 183 0 353 48 672 190 266 118 315 133 444 138 60 2 152 -1 205 -8 94 -12
266 -56 310 -79 31 -17 120 -23 157 -11 17 6 45 25 63 43 56 58 66 121 31 193
-26 55 -78 88 -144 91 -27 2 -102 21 -165 42 -148 51 -306 75 -455 68 -129 -5
-186 -23 -468 -149 -301 -134 -460 -178 -637 -180 -156 -1 -255 30 -638 196
-249 108 -391 142 -556 133 -125 -6 -233 -39 -471 -144 -307 -135 -398 -166
-540 -181 -170 -19 -303 15 -633 159 -338 147 -443 176 -616 166 -136 -8 -230
-37 -521 -162 -274 -118 -374 -151 -483 -163 -177 -20 -337 19 -667 164 -230
100 -277 118 -379 144 -93 24 -234 25 -341 4z"/>
<path d="M730 1360 c-117 -19 -234 -49 -259 -68 -37 -27 -71 -91 -71 -132 1
-77 59 -152 128 -166 16 -3 65 2 108 12 55 13 117 18 204 18 154 0 192 -12
537 -160 532 -228 635 -229 1148 -4 321 140 462 178 626 166 137 -9 233 -41
579 -191 292 -127 433 -159 596 -136 122 17 237 56 485 165 118 51 250 105
294 119 263 85 427 60 866 -134 341 -150 454 -176 651 -146 168 26 262 57 563
190 278 122 314 132 480 131 161 -1 275 -20 404 -66 163 -60 268 -41 312 56
25 55 24 102 -4 151 -33 57 -79 85 -142 85 -34 0 -72 9 -109 25 -122 54 -301
87 -476 89 -143 1 -186 -12 -470 -136 -362 -159 -477 -192 -675 -192 -163 0
-217 15 -540 153 -366 157 -513 194 -680 173 -127 -17 -197 -40 -470 -157
-545 -234 -634 -234 -1165 0 -493 217 -610 216 -1120 -7 -332 -146 -442 -176
-605 -165 -154 11 -268 48 -643 211 -84 36 -192 78 -239 91 -97 28 -228 39
-313 25z"/>
</g>
</svg>
