<?xml version="1.0" standalone="no"?>
<!DOCTYPE svg PUBLIC "-//W3C//DTD SVG 20010904//EN"
 "http://www.w3.org/TR/2001/REC-SVG-20010904/DTD/svg10.dtd">
<svg version="1.0" xmlns="http://www.w3.org/2000/svg"
 width="840.000000pt" height="632.000000pt" viewBox="0 0 840.000000 632.000000"
 preserveAspectRatio="xMidYMid meet">

<g transform="translate(0.000000,632.000000) scale(0.100000,-0.100000)"
fill="#000000" stroke="none">
<path d="M2565 5901 c-531 -127 -944 -524 -1081 -1041 -31 -116 -42 -332 -26
-485 44 -400 324 -811 699 -1026 169 -96 366 -157 583 -179 129 -13 188 -6
201 24 5 13 3 69 -9 156 l-17 135 -140 6 c-284 13 -499 99 -684 274 -135 128
-231 280 -285 453 -63 200 -52 514 24 720 137 366 468 615 885 663 188 22 361
-9 570 -102 64 -29 117 -50 119 -48 2 2 41 60 86 128 64 97 79 126 68 133 -40
28 -246 120 -330 147 -114 36 -216 49 -428 56 -130 4 -168 2 -235 -14z"/>
<path d="M5420 5915 c-8 -2 -49 -9 -90 -15 -94 -16 -259 -70 -370 -121 -90
-42 -120 -64 -120 -86 0 -22 143 -243 158 -243 7 0 47 17 90 39 120 60 256 99
390 113 377 37 775 -146 977 -451 205 -311 232 -760 65 -1098 -105 -213 -260
-362 -485 -469 -134 -64 -222 -84 -402 -91 l-152 -6 -5 -36 c-20 -138 -28
-263 -17 -274 29 -29 309 -3 480 44 491 136 888 574 985 1088 24 124 21 356
-5 484 -88 435 -358 788 -757 989 -183 92 -332 127 -567 133 -88 2 -167 2
-175 0z"/>
<path d="M4070 5574 c-180 -26 -306 -63 -446 -130 -144 -68 -267 -156 -389
-279 -168 -167 -275 -344 -357 -589 l-41 -121 -5 -205 c-5 -233 3 -310 50
-445 191 -561 664 -931 1253 -980 281 -24 630 92 892 294 265 204 444 487 515
811 28 126 30 369 4 515 -101 562 -593 1034 -1168 1119 -95 14 -243 19 -308
10z m312 -329 c331 -50 613 -254 758 -550 87 -178 109 -275 110 -480 0 -155
-15 -271 -47 -365 -163 -476 -613 -756 -1123 -700 -223 24 -373 82 -537 207
-187 142 -314 334 -374 565 -19 71 -20 102 -17 306 4 223 5 229 35 312 111
311 301 520 581 638 67 29 200 67 257 75 73 10 268 6 357 -8z"/>
<path d="M1693 3351 c-517 -260 -907 -649 -1173 -1171 -160 -315 -250 -610
-305 -998 l-16 -113 37 -52 c84 -117 94 -123 271 -161 329 -71 731 -136 842
-136 52 0 59 2 65 22 10 40 30 258 23 264 -3 3 -162 32 -354 64 -329 56 -542
96 -550 104 -2 2 3 46 12 97 147 850 616 1491 1333 1820 50 23 92 47 92 53 0
15 -73 204 -95 246 -8 16 -22 30 -30 30 -7 0 -76 -31 -152 -69z"/>
<path d="M6507 3363 c-13 -27 -39 -88 -58 -137 -27 -73 -30 -91 -19 -94 39
-13 294 -146 360 -188 296 -188 538 -435 718 -734 160 -264 266 -552 327 -883
15 -81 26 -150 23 -152 -12 -12 -483 -98 -769 -140 -64 -9 -122 -21 -129 -25
-10 -6 -11 -29 -1 -117 7 -59 15 -125 18 -147 l6 -39 71 7 c147 12 680 105
904 157 104 24 126 39 195 141 l39 56 -12 98 c-39 331 -149 703 -291 985 -264
528 -660 932 -1162 1189 -169 86 -188 88 -220 23z"/>
<path d="M3064 3006 c-261 -130 -446 -265 -673 -494 -218 -221 -364 -421 -494
-679 -160 -317 -238 -568 -297 -953 -23 -148 -22 -151 47 -252 52 -76 49 -75
228 -114 531 -115 1035 -183 1600 -216 284 -16 1214 -17 1470 0 513 33 946 90
1454 192 290 59 297 62 373 174 l41 59 -7 74 c-49 534 -307 1151 -649 1548
-190 222 -429 432 -617 545 -108 64 -354 190 -373 190 -13 0 -117 -242 -117
-272 0 -8 57 -42 126 -76 314 -156 530 -321 731 -556 275 -321 460 -715 548
-1166 30 -155 31 -177 8 -184 -10 -3 -83 -19 -163 -35 -1081 -222 -2399 -261
-3584 -105 -285 38 -753 123 -787 144 -39 25 50 417 154 675 121 300 277 543
492 764 194 199 369 326 624 452 83 40 151 77 151 80 0 22 -115 279 -124 279
-7 0 -80 -33 -162 -74z"/>
</g>
</svg>
