<?xml version="1.0" standalone="no"?>
<!DOCTYPE svg PUBLIC "-//W3C//DTD SVG 20010904//EN"
 "http://www.w3.org/TR/2001/REC-SVG-20010904/DTD/svg10.dtd">
<svg version="1.0" xmlns="http://www.w3.org/2000/svg"
 width="840.000000pt" height="973.000000pt" viewBox="0 0 840.000000 973.000000"
 preserveAspectRatio="xMidYMid meet">

<g transform="translate(0.000000,973.000000) scale(0.100000,-0.100000)"
fill="#000000" stroke="none">
<path d="M2691 9307 c-21 -54 -31 -108 -46 -246 -8 -80 -72 -505 -140 -945
-69 -441 -144 -924 -168 -1074 l-42 -273 -39 48 c-167 205 -411 372 -670 458
-175 58 -250 70 -451 70 -164 -1 -189 -3 -277 -27 -172 -48 -270 -102 -387
-212 -117 -111 -201 -267 -243 -449 -31 -131 -30 -370 0 -514 42 -195 130
-400 231 -533 72 -96 273 -286 376 -356 170 -116 361 -196 549 -231 66 -13
143 -17 281 -17 269 1 380 27 530 124 252 165 421 480 530 985 44 207 60 300
129 760 91 605 96 644 111 795 18 179 32 250 56 289 31 51 74 39 233 -63 288
-187 693 -280 1100 -253 142 9 173 17 138 36 -12 6 -68 28 -124 47 -279 96
-514 260 -756 527 -147 163 -195 225 -373 488 -227 337 -363 492 -498 567
l-41 23 -9 -24z"/>
<path d="M4476 5543 c-3 -10 -14 -79 -25 -153 -11 -74 -46 -295 -76 -490 -31
-195 -71 -454 -90 -575 -19 -121 -57 -366 -85 -545 -28 -179 -66 -426 -86
-549 -19 -124 -37 -227 -39 -230 -3 -2 -15 9 -27 25 -51 67 -189 200 -268 260
-153 114 -356 207 -564 256 -77 19 -121 22 -291 23 -179 0 -209 -2 -284 -23
-212 -58 -384 -175 -493 -336 -213 -312 -217 -790 -11 -1201 62 -125 120 -203
243 -326 362 -365 793 -510 1298 -438 312 45 555 275 707 669 97 249 182 698
340 1785 41 285 75 526 75 533 0 12 11 13 53 8 168 -22 676 -137 1306 -297
434 -110 1192 -308 1203 -315 16 -10 -66 -357 -304 -1284 -50 -195 -92 -357
-94 -359 -2 -2 -44 35 -94 82 -177 171 -396 285 -660 342 -115 25 -384 31
-496 11 -300 -52 -553 -235 -664 -479 -144 -317 -88 -715 139 -1001 179 -225
493 -398 836 -462 134 -25 422 -26 545 -1 354 70 608 254 755 547 112 222 274
879 690 2800 160 741 184 854 181 857 -7 7 -666 168 -1051 257 -225 52 -558
131 -740 175 -519 125 -945 226 -1583 372 -169 38 -315 72 -324 75 -10 3 -18
-2 -22 -13z"/>
</g>
</svg>
