<?xml version="1.0" standalone="no"?>
<!DOCTYPE svg PUBLIC "-//W3C//DTD SVG 20010904//EN"
 "http://www.w3.org/TR/2001/REC-SVG-20010904/DTD/svg10.dtd">
<svg version="1.0" xmlns="http://www.w3.org/2000/svg"
 width="840.000000pt" height="667.000000pt" viewBox="0 0 840.000000 667.000000"
 preserveAspectRatio="xMidYMid meet">

<g transform="translate(0.000000,667.000000) scale(0.100000,-0.100000)"
fill="#000000" stroke="none">
<path d="M2011 6245 c-96 -21 -157 -43 -256 -92 -367 -183 -704 -561 -970
-1093 -215 -428 -357 -875 -465 -1460 -93 -504 -114 -721 -114 -1135 0 -477
45 -793 164 -1156 167 -510 449 -842 825 -970 60 -21 89 -24 205 -24 115 0
146 4 205 23 349 116 653 409 1180 1133 81 112 153 207 159 211 6 4 583 8
1283 8 1006 0 1274 -3 1283 -12 6 -7 72 -105 147 -218 243 -368 410 -578 611
-771 259 -249 485 -366 729 -377 183 -8 323 32 482 138 662 443 899 1765 577
3216 -150 674 -393 1276 -699 1734 -160 239 -377 473 -557 603 -117 84 -306
178 -424 212 -105 30 -260 45 -368 35 -171 -15 -374 -164 -628 -459 l-95 -110
-842 -1 c-567 0 -859 -4 -893 -11 -157 -34 -245 -202 -195 -374 12 -43 28 -69
64 -105 86 -86 19 -81 1092 -78 l944 3 67 33 c90 44 159 109 269 255 51 67
119 147 150 178 182 180 376 144 634 -116 175 -176 324 -396 489 -725 349
-695 546 -1514 546 -2270 0 -670 -159 -1241 -411 -1474 -82 -76 -128 -98 -215
-104 -62 -4 -80 -1 -128 21 -154 71 -338 252 -569 562 -107 143 -289 418 -378
569 -53 91 -74 117 -122 152 -32 24 -75 47 -95 51 -20 4 -701 7 -1512 7
l-1475 -1 -45 -22 c-73 -35 -107 -74 -202 -229 -229 -372 -444 -665 -628 -856
-123 -127 -204 -190 -294 -232 -110 -50 -231 -23 -340 77 -199 181 -342 573
-398 1089 -16 150 -16 629 0 795 47 476 171 1053 309 1435 275 764 699 1324
1044 1379 62 10 150 -1 184 -23 26 -17 88 -96 162 -206 95 -142 168 -186 295
-178 83 5 136 28 185 80 92 96 97 237 13 363 -137 204 -194 273 -305 362 -95
76 -216 138 -311 158 -86 18 -278 18 -363 0z"/>
<path d="M6330 4699 c-186 -32 -355 -190 -405 -380 -17 -63 -19 -175 -4 -239
26 -112 116 -242 215 -311 195 -134 472 -108 643 59 105 103 153 218 153 367
0 222 -129 406 -338 482 -73 26 -187 36 -264 22z"/>
<path d="M2092 4461 c-64 -22 -126 -79 -156 -141 -18 -39 -21 -68 -24 -227
l-4 -181 -181 -4 c-210 -4 -243 -13 -313 -90 -52 -57 -69 -104 -69 -199 0
-101 37 -178 108 -226 70 -47 103 -53 290 -53 l167 0 0 -155 c0 -181 10 -239
54 -302 113 -164 395 -146 489 31 20 37 22 61 27 231 l5 190 190 5 c210 6 236
13 303 81 108 110 101 318 -14 419 -66 57 -91 63 -294 70 l-185 5 -5 190 c-5
171 -7 194 -27 231 -64 121 -219 174 -361 125z"/>
<path d="M5514 3726 c-186 -43 -340 -192 -389 -377 -72 -269 107 -558 386
-624 119 -28 217 -16 334 41 307 147 386 538 161 800 -111 130 -323 198 -492
160z"/>
</g>
</svg>
