<?xml version="1.0" standalone="no"?>
<!DOCTYPE svg PUBLIC "-//W3C//DTD SVG 20010904//EN"
 "http://www.w3.org/TR/2001/REC-SVG-20010904/DTD/svg10.dtd">
<svg version="1.0" xmlns="http://www.w3.org/2000/svg"
 width="980.000000pt" height="982.000000pt" viewBox="0 0 980.000000 982.000000"
 preserveAspectRatio="xMidYMid meet">

<g transform="translate(0.000000,982.000000) scale(0.100000,-0.100000)"
fill="#000000" stroke="none">
<path d="M4510 9799 c-1028 -91 -2006 -503 -2795 -1177 -145 -124 -445 -428
-562 -568 -276 -333 -481 -647 -657 -1009 -721 -1474 -651 -3203 186 -4613
222 -374 446 -662 757 -973 401 -401 823 -703 1326 -949 537 -263 1029 -405
1650 -477 189 -21 745 -25 935 -5 828 86 1565 348 2235 795 1010 675 1733
1671 2045 2817 215 789 224 1634 25 2436 -164 662 -476 1301 -900 1844 -800
1022 -2005 1707 -3265 1854 -282 33 -751 45 -980 25z m730 -289 c239 -13 341
-25 530 -61 1287 -248 2410 -1023 3080 -2129 97 -161 270 -507 336 -675 132
-337 237 -725 288 -1065 49 -324 49 -1016 0 -1340 -122 -814 -459 -1593 -960
-2220 -631 -791 -1506 -1348 -2504 -1594 -428 -106 -566 -121 -1110 -121 -544
0 -684 16 -1106 120 -1041 258 -1940 844 -2571 1676 -435 573 -747 1291 -877
2019 -40 222 -47 308 -53 665 -6 364 6 632 38 826 168 1032 619 1911 1340
2614 726 707 1626 1136 2679 1275 159 21 593 26 890 10z"/>
<path d="M2992 7099 c-82 -16 -160 -59 -217 -120 -29 -33 -61 -72 -71 -88
l-17 -29 -156 1 c-150 2 -158 1 -214 -25 -75 -35 -166 -123 -206 -198 -38 -72
-61 -169 -61 -267 l0 -73 -107 7 c-176 9 -291 -32 -392 -142 -88 -98 -93 -119
-99 -487 l-5 -318 -31 -4 c-17 -3 -83 -7 -147 -10 -142 -7 -191 -21 -273 -80
-236 -169 -236 -543 0 -712 81 -58 132 -73 264 -80 58 -3 124 -7 146 -10 l41
-5 5 -317 c6 -371 10 -390 103 -490 100 -108 212 -148 386 -139 l106 6 6 -107
c9 -166 47 -253 156 -355 28 -27 77 -60 109 -75 55 -26 64 -27 212 -26 l155 1
50 -69 c59 -81 141 -141 215 -157 66 -14 195 -14 262 0 114 25 187 76 264 190
l49 71 5 737 5 736 1346 3 1346 2 6 -729 7 -729 37 -64 c104 -177 218 -235
445 -226 82 3 112 9 146 27 53 27 121 88 175 156 l40 50 151 0 c143 0 154 1
209 27 67 32 177 132 215 197 35 60 52 140 52 249 l0 92 108 -6 c160 -10 271
24 374 115 101 90 118 170 118 583 l0 256 173 4 c170 3 173 3 240 35 93 44
169 119 214 211 33 66 38 85 41 168 4 74 0 107 -16 161 -39 126 -134 229 -251
273 -40 16 -87 22 -185 26 -72 3 -150 7 -173 10 l-43 5 0 252 c0 309 -10 411
-45 483 -32 66 -107 133 -195 177 -64 32 -66 32 -212 31 l-148 -1 0 91 c0 107
-17 188 -52 247 -38 65 -148 165 -215 197 -55 26 -66 27 -209 27 l-151 0 -40
50 c-54 67 -122 129 -175 157 -39 21 -55 23 -193 23 -144 0 -152 -1 -207 -28
-66 -32 -150 -118 -197 -201 l-32 -57 -6 -729 -6 -730 -1348 0 -1348 0 -4 703
c-4 761 -4 764 -60 859 -81 139 -294 223 -475 187z m238 -2189 l0 -1900 -129
0 c-107 0 -131 3 -142 17 -12 13 -14 315 -14 1882 0 1026 3 1874 7 1884 7 15
23 17 143 17 l135 0 0 -1900z m3585 0 l0 -1895 -131 -3 c-113 -2 -133 0 -145
14 -12 15 -14 302 -14 1891 0 1655 2 1875 15 1883 8 6 74 9 145 8 l130 -3 0
-1895z m-4193 1652 c18 -18 30 -1094 24 -2097 -3 -533 -9 -1023 -13 -1088 -6
-116 -7 -119 -32 -129 -34 -13 -194 -13 -219 1 -13 7 -22 25 -26 53 -4 24 -9
626 -12 1338 -5 1310 2 1900 25 1923 25 25 228 24 253 -1z m4776 4 c15 -16 20
-450 20 -1656 0 -1200 -5 -1640 -20 -1655 -24 -25 -243 -20 -258 5 -17 27 -24
518 -24 1650 0 1135 7 1623 24 1650 15 24 234 29 258 6z m-5394 -556 c21 -21
27 -289 23 -1175 -3 -975 -4 -990 -44 -1031 -14 -13 -33 -16 -110 -12 -80 3
-97 7 -116 26 l-22 23 0 1057 c0 581 3 1069 8 1084 5 19 17 31 40 37 37 12
207 5 221 -9z m5976 7 c28 -10 36 -19 44 -52 13 -54 13 -2056 0 -2110 -8 -34
-15 -42 -49 -53 -44 -15 -171 -10 -204 8 -13 6 -21 25 -25 57 -3 27 -8 392
-12 813 -6 770 4 1302 24 1322 26 26 164 35 222 15z m-6550 -1108 l0 -151
-140 4 c-176 4 -174 3 -178 131 -4 102 7 143 40 157 13 5 80 9 151 9 l127 1 0
-151z m4800 1 l0 -150 -1350 0 -1350 0 0 150 0 150 1350 0 1350 0 0 -150z
m2437 127 c15 -15 18 -35 18 -127 0 -150 8 -144 -195 -148 l-160 -3 0 151 0
152 160 -4 c137 -3 162 -6 177 -21z"/>
</g>
</svg>
