<?xml version="1.0" standalone="no"?>
<!DOCTYPE svg PUBLIC "-//W3C//DTD SVG 20010904//EN"
 "http://www.w3.org/TR/2001/REC-SVG-20010904/DTD/svg10.dtd">
<svg version="1.0" xmlns="http://www.w3.org/2000/svg"
 width="840.000000pt" height="820.000000pt" viewBox="0 0 840.000000 820.000000"
 preserveAspectRatio="xMidYMid meet">

<g transform="translate(0.000000,820.000000) scale(0.100000,-0.100000)"
fill="#000000" stroke="none">
<path d="M1225 7780 c-135 -13 -281 -119 -354 -258 -45 -86 -50 -152 -57 -713
l-6 -456 -167 -6 c-190 -7 -246 -20 -317 -73 -65 -49 -95 -87 -107 -137 -7
-28 -11 -1030 -14 -2894 l-4 -2853 950 0 951 0 0 861 0 862 49 48 48 49 574 0
575 0 47 -48 47 -48 0 -862 0 -862 950 0 950 0 0 2881 0 2882 -21 33 c-34 55
-104 110 -166 129 -37 12 -119 22 -237 29 l-181 11 -6 510 c-4 327 -11 527
-18 558 -31 129 -141 261 -274 327 l-79 40 -1532 -1 c-842 -1 -1562 -5 -1601
-9z m1157 -467 c64 -28 133 -95 170 -164 20 -38 23 -58 23 -144 0 -92 -2 -104
-29 -153 -116 -210 -410 -249 -581 -78 -64 64 -88 137 -83 251 5 107 18 136
94 212 110 110 265 139 406 76z m-1072 -103 l0 -120 120 0 120 0 1 38 c1 20 2
44 3 52 2 8 3 45 4 83 l2 67 85 0 85 0 0 -330 0 -331 -87 3 -88 3 3 121 c2 82
0 124 -8 129 -6 4 -60 3 -120 0 l-110 -8 0 -47 c0 -26 -3 -81 -6 -123 l-7 -77
-83 0 -84 0 0 330 0 330 85 0 85 0 0 -120z m1920 40 l0 -80 -95 0 -95 0 0
-250 0 -250 -42 0 c-24 0 -67 3 -95 6 l-53 7 0 212 c0 117 -3 227 -6 244 l-6
31 -94 0 -94 0 0 80 0 80 290 0 290 0 0 -80z m660 6 l0 -73 -67 -6 c-38 -4
-108 -7 -156 -7 -99 0 -127 -10 -127 -45 0 -31 8 -32 170 -41 81 -4 138 -11
142 -18 4 -6 8 -39 8 -73 l0 -63 -160 0 -160 0 0 -50 0 -50 175 0 175 0 0 -80
0 -80 -265 0 -265 0 0 330 0 330 265 0 265 0 0 -74z m328 -167 l2 -236 136 -6
c178 -8 184 -12 184 -109 l0 -71 -252 6 c-138 4 -252 8 -253 9 -1 2 -5 148 -9
326 l-6 323 97 -3 98 -3 3 -236z m-2725 -1429 c181 -10 209 -21 242 -85 19
-38 20 -63 23 -459 l3 -419 -58 -59 -58 -59 -410 3 c-308 3 -417 7 -440 16
-45 20 -84 61 -95 101 -15 54 -23 525 -12 702 11 173 22 208 75 235 18 10 70
20 117 24 128 11 435 11 613 0z m1721 -15 c91 -46 98 -88 94 -567 -3 -402 -5
-413 -68 -458 -28 -20 -50 -24 -173 -31 -78 -4 -273 -8 -433 -8 l-292 -1 -56
64 -56 64 1 349 c0 402 6 487 38 532 52 72 107 80 566 77 317 -1 343 -3 379
-21z m1551 -3 c28 -12 56 -31 62 -42 26 -40 33 -157 33 -532 l0 -386 -46 -41
c-26 -22 -62 -44 -83 -48 -20 -5 -198 -8 -396 -8 -397 0 -444 5 -494 55 -52
52 -56 90 -56 485 0 378 4 415 46 469 53 68 108 75 534 72 339 -2 352 -2 400
-24z m-3142 -1611 c55 -9 92 -39 118 -96 17 -37 19 -71 18 -430 -1 -425 -1
-433 -58 -490 -42 -44 -45 -44 -521 -50 l-384 -4 -58 58 -58 58 0 427 0 427
51 55 52 54 396 -1 c218 0 417 -4 444 -8z m1634 -43 l53 -52 0 -431 0 -431
-58 -57 -58 -57 -421 0 -422 0 -54 47 -54 47 -6 360 c-3 199 -2 395 2 438 8
75 31 129 67 159 27 22 99 26 509 28 l389 1 53 -52z m1531 29 c64 -35 66 -51
70 -452 5 -442 1 -494 -39 -540 -47 -53 -80 -57 -482 -56 -197 0 -378 3 -403
7 -54 8 -104 40 -123 78 -22 47 -33 255 -29 556 5 312 8 329 66 384 17 15 45
32 64 36 18 5 215 8 438 7 370 -2 408 -4 438 -20z m-3083 -1648 l56 -52 -3
-421 -3 -421 -25 -45 c-14 -25 -38 -51 -54 -59 -47 -22 -246 -33 -556 -29
-243 3 -301 6 -330 20 -42 19 -75 52 -90 92 -16 42 -24 471 -12 681 9 184 18
223 57 255 22 18 194 26 597 28 l306 2 57 -51z m3107 4 l48 -47 -1 -401 c0
-220 -4 -422 -8 -448 -10 -58 -48 -102 -106 -120 -29 -9 -148 -12 -425 -12
-376 0 -386 1 -433 22 -70 33 -87 77 -98 257 -11 193 -10 515 1 605 17 129 59
172 173 182 40 3 236 6 437 7 l364 2 48 -47z"/>
<path d="M2165 7166 c-74 -32 -110 -124 -86 -216 16 -57 52 -95 104 -109 108
-27 207 47 207 156 0 128 -117 216 -225 169z"/>
<path d="M6034 3850 c-129 -19 -266 -132 -346 -287 l-48 -90 0 -1542 0 -1541
1282 0 1281 0 -6 1551 -7 1550 -42 82 c-53 103 -139 192 -228 237 -53 27 -81
34 -165 41 -124 10 -1650 9 -1721 -1z m670 -755 c28 -38 36 -58 42 -112 9 -92
-2 -520 -16 -565 -6 -20 -22 -46 -37 -58 -25 -19 -39 -20 -339 -20 -366 0
-382 3 -409 73 -13 36 -15 87 -13 344 3 288 4 303 24 330 36 48 63 52 401 52
l312 1 35 -45z m1118 35 c23 -7 46 -23 60 -43 23 -32 23 -35 23 -348 l0 -315
-28 -42 -27 -42 -320 0 c-357 0 -375 3 -407 62 -16 30 -18 62 -18 338 0 289 1
307 20 340 13 22 34 39 55 47 45 15 588 17 642 3z m-1157 -1225 c27 -13 47
-33 60 -60 19 -38 20 -58 18 -344 -3 -415 30 -385 -424 -389 l-316 -3 -34 42
-34 43 -3 301 c-2 189 1 313 7 336 14 46 51 80 98 90 21 4 162 7 313 6 253 -2
278 -4 315 -22z m1194 -10 c49 -56 53 -89 49 -405 -4 -404 27 -375 -410 -375
l-306 0 -44 30 -43 31 -2 189 c-2 105 0 262 5 349 7 155 8 159 33 178 40 30
103 36 405 37 l282 1 31 -35z"/>
<path d="M2607 1913 c-4 -3 -7 -348 -7 -765 l0 -758 170 0 170 0 0 765 0 765
-163 0 c-90 0 -167 -3 -170 -7z"/>
</g>
</svg>
