<?xml version="1.0" standalone="no"?>
<!DOCTYPE svg PUBLIC "-//W3C//DTD SVG 20010904//EN"
 "http://www.w3.org/TR/2001/REC-SVG-20010904/DTD/svg10.dtd">
<svg version="1.0" xmlns="http://www.w3.org/2000/svg"
 width="728.000000pt" height="716.000000pt" viewBox="0 0 728.000000 716.000000"
 preserveAspectRatio="xMidYMid meet">

<g transform="translate(0.000000,716.000000) scale(0.100000,-0.100000)"
fill="#000000" stroke="none">
<path d="M5197 5590 c-178 -28 -352 -86 -483 -162 -371 -212 -608 -544 -664
-926 l-12 -82 -373 0 -373 0 -28 48 c-171 293 -486 502 -835 553 -118 17 -381
6 -486 -20 -372 -93 -682 -360 -808 -695 -45 -121 -58 -199 -58 -361 -1 -168
17 -264 74 -401 118 -283 412 -544 714 -633 51 -15 227 -51 249 -51 0 0 0
-236 -2 -525 l-2 -525 140 0 140 0 0 -190 0 -190 1083 0 1082 0 -3 190 -3 190
226 0 225 0 0 120 0 120 55 0 55 0 0 -75 0 -75 216 0 216 0 -3 505 -4 505
-212 0 -213 0 0 -90 0 -90 -55 0 -55 0 0 184 0 183 52 -13 c246 -64 565 -55
812 23 462 146 824 544 902 994 25 144 15 400 -20 534 -32 120 -124 312 -197
407 -201 268 -500 460 -822 530 -105 22 -430 33 -530 18z m565 -277 c193 -44
491 -266 576 -429 18 -34 32 -66 32 -71 0 -12 -377 -195 -448 -218 -45 -14
-60 -15 -105 -5 -108 26 -210 99 -251 181 -25 50 -26 61 -26 208 0 86 3 200 7
253 l6 97 41 3 c51 4 83 1 168 -19z m-551 11 l45 -6 22 -222 c13 -121 22 -234
22 -251 0 -50 -44 -127 -104 -183 -71 -68 -126 -92 -208 -93 -56 -1 -93 10
-318 91 -140 51 -265 98 -277 104 l-21 11 28 62 c56 123 171 245 327 350 165
109 335 157 484 137z m-2606 -566 c157 -51 337 -187 408 -308 l18 -30 -340 0
-341 0 0 103 c0 57 3 138 6 180 l7 76 41 3 c68 5 138 -3 201 -24z m-471 -40
c3 -35 8 -116 11 -180 5 -102 4 -118 -10 -118 -12 0 -15 -12 -15 -57 -1 -48
-5 -65 -30 -97 -60 -79 -153 -124 -235 -113 -32 5 -438 150 -454 163 -2 2 6
27 18 56 44 108 161 237 285 316 97 61 204 88 353 91 l71 1 6 -62z m3184 -223
c25 -21 34 -24 57 -15 14 5 45 10 68 10 125 -1 205 -113 162 -225 -25 -67 -71
-98 -151 -103 -76 -5 -113 8 -153 53 -36 41 -47 107 -28 163 14 40 14 41 -14
68 l-29 28 22 23 c27 29 30 29 66 -2z m1202 -27 c66 -151 16 -477 -106 -696
-40 -71 -133 -172 -158 -172 -17 0 -293 253 -324 298 -38 54 -62 112 -73 179
-11 64 -10 72 11 114 29 57 140 164 220 211 45 26 95 44 179 63 64 15 139 33
166 40 28 7 53 14 56 14 4 1 17 -23 29 -51z m-1956 -56 c-141 -1 -259 0 -262
2 -2 3 -2 20 2 38 l6 34 256 -36 256 -35 -258 -3z m534 -237 c3 -3 -86 -204
-94 -214 -2 -2 -4 50 -4 116 l0 121 48 -10 c26 -6 48 -12 50 -13z m-3525 -149
c187 -25 208 -32 249 -87 26 -35 48 -123 48 -195 0 -110 -18 -145 -146 -291
-63 -73 -121 -133 -127 -133 -6 0 -38 28 -72 63 -64 66 -128 176 -164 283 -27
82 -44 224 -35 312 l6 72 32 0 c17 0 111 -11 209 -24z m3992 -106 c87 -42 128
-94 357 -455 l48 -74 -28 -19 c-108 -76 -207 -97 -462 -97 -219 0 -302 11
-418 57 l-57 23 -3 92 -3 92 67 108 c110 179 136 213 180 244 89 61 227 74
319 29z m-3445 -599 c0 -138 -3 -252 -7 -254 -5 -2 -39 2 -78 10 -74 15 -172
58 -188 83 -18 29 228 410 265 410 4 0 8 -112 8 -249z"/>
<path d="M5935 5190 c17 -11 35 -20 40 -20 6 0 -5 9 -23 20 -42 26 -56 26 -17
0z"/>
<path d="M5993 5138 c-2 -16 0 -19 6 -9 7 11 15 9 42 -10 18 -12 27 -25 21
-27 -6 -2 12 -24 41 -50 29 -25 58 -51 65 -58 7 -7 20 -11 30 -8 11 4 13 3 5
-3 -16 -11 1 -38 17 -28 8 5 11 4 7 -3 -4 -5 9 -34 28 -63 19 -29 36 -57 38
-63 2 -5 11 -7 21 -3 16 6 16 10 -5 46 -44 79 -111 152 -206 226 -54 41 -100
75 -103 75 -3 0 -7 -10 -7 -22z m99 -56 c2 -4 22 -22 46 -40 23 -19 42 -38 42
-43 0 -5 -12 1 -26 14 -76 64 -88 77 -77 77 6 0 13 -3 15 -8z m194 -215 c14
-30 14 -31 -1 -12 -25 30 -39 59 -26 51 6 -4 18 -22 27 -39z"/>
<path d="M5211 5249 c1 -85 45 -452 51 -424 7 35 -33 440 -44 451 -5 4 -8 -8
-7 -27z"/>
<path d="M4870 5220 c-9 -6 -10 -10 -3 -10 6 0 15 5 18 10 8 12 4 12 -15 0z"/>
<path d="M4825 5200 c-3 -6 1 -7 9 -4 18 7 21 14 7 14 -6 0 -13 -4 -16 -10z"/>
<path d="M4728 5141 c-37 -25 -67 -50 -68 -54 0 -7 114 68 145 95 28 24 -19 0
-77 -41z"/>
<path d="M4562 5002 c-66 -67 -153 -195 -140 -207 2 -2 16 21 32 51 16 30 67
95 113 144 47 50 82 90 78 90 -4 0 -41 -35 -83 -78z"/>
<path d="M2388 4596 c-2 -112 0 -146 10 -146 9 0 13 31 14 115 1 63 2 127 2
142 1 14 -4 28 -11 30 -9 3 -13 -34 -15 -141z"/>
<path d="M2875 4550 c10 -11 20 -20 23 -20 3 0 -3 9 -13 20 -10 11 -20 20 -23
20 -3 0 3 -9 13 -20z"/>
<path d="M1694 4631 c-88 -62 -191 -172 -226 -242 l-28 -54 22 -5 c19 -5 26 3
49 51 15 31 32 60 38 64 7 4 9 15 6 24 -3 11 3 25 17 37 l23 19 -17 -21 c-42
-49 -12 -31 52 32 38 38 70 74 70 81 0 7 9 17 19 23 26 13 34 13 25 -2 -4 -7
-3 -8 5 -4 6 4 9 11 6 16 -3 5 3 13 12 19 10 6 13 11 7 11 -6 0 -42 -22 -80
-49z m-20 -42 c-10 -11 -28 -26 -39 -32 -11 -6 -4 6 15 25 37 38 57 43 24 7z"/>
<path d="M5280 4473 c0 -12 38 -48 45 -41 3 2 -6 15 -20 28 -14 13 -25 19 -25
13z"/>
<path d="M5508 4433 c6 -2 10 -9 6 -14 -3 -5 2 -12 10 -15 9 -3 14 -10 11 -14
-3 -5 0 -12 6 -16 8 -5 9 -3 4 6 -5 8 -4 11 2 7 6 -4 10 -38 9 -76 -1 -60 1
-67 11 -48 7 12 12 41 13 64 0 33 -7 50 -31 78 -17 19 -36 35 -43 34 -7 0 -7
-2 2 -6z"/>
<path d="M6457 4463 c-3 -5 1 -33 9 -63 50 -193 -40 -559 -176 -712 -23 -27
-37 -48 -32 -48 16 0 89 87 122 145 35 62 75 164 102 260 26 95 36 324 16 379
-14 39 -31 55 -41 39z"/>
<path d="M5037 4143 c-4 -3 -7 -13 -7 -22 1 -13 3 -13 11 2 11 19 8 33 -4 20z"/>
<path d="M1363 3892 c5 -143 25 -218 88 -343 37 -74 133 -194 149 -184 4 2
-10 23 -31 45 -45 47 -122 199 -145 285 -9 33 -18 117 -21 187 -5 116 -7 127
-26 132 -19 5 -19 1 -14 -122z"/>
<path d="M5614 3818 c36 -34 66 -67 67 -73 0 -5 20 -37 45 -70 24 -33 56 -84
70 -114 15 -30 35 -62 46 -73 27 -27 59 -88 53 -99 -3 -5 1 -6 9 -3 21 8 21 5
-15 64 -17 28 -35 47 -41 43 -7 -3 -8 -1 -4 5 4 7 -17 49 -47 94 -29 46 -66
103 -81 127 -37 58 -104 129 -139 147 -18 10 -5 -7 37 -48z"/>
<path d="M2059 3467 c-9 -12 -47 -74 -84 -137 -37 -63 -73 -125 -81 -137 -12
-19 -11 -23 9 -36 12 -8 33 -17 47 -21 17 -5 13 0 -15 18 -22 14 -34 26 -27
26 7 0 10 5 7 10 -3 6 -3 10 2 10 8 0 43 55 42 67 0 3 4 9 9 12 5 3 24 31 42
61 18 30 40 64 49 74 9 11 10 16 4 12 -9 -5 -11 -2 -7 8 3 9 10 13 15 10 5 -3
9 6 9 20 0 31 -1 31 -21 3z"/>
<path d="M5067 2933 c-4 -3 -6 -45 -5 -92 l1 -86 6 90 c7 99 7 98 -2 88z"/>
<path d="M5063 1955 c0 -38 2 -53 4 -32 2 20 2 52 0 70 -2 17 -4 1 -4 -38z"/>
</g>
</svg>
