<?xml version="1.0" standalone="no"?>
<!DOCTYPE svg PUBLIC "-//W3C//DTD SVG 20010904//EN"
 "http://www.w3.org/TR/2001/REC-SVG-20010904/DTD/svg10.dtd">
<svg version="1.0" xmlns="http://www.w3.org/2000/svg"
 width="360.000000pt" height="360.000000pt" viewBox="0 0 360.000000 360.000000"
 preserveAspectRatio="xMidYMid meet">

<g transform="translate(0.000000,360.000000) scale(0.100000,-0.100000)"
fill="#000000" stroke="none">
<path d="M2043 3364 c-57 -21 -129 -86 -160 -148 -53 -102 -29 -248 55 -329
86 -84 226 -107 328 -54 64 32 127 103 148 164 77 225 -147 446 -371 367z"/>
<path d="M1247 2893 c-4 -3 -7 -17 -7 -29 0 -19 -7 -24 -37 -30 -66 -11 -158
-61 -202 -110 -50 -53 -96 -149 -106 -216 l-6 -48 382 0 381 0 -4 54 c-12 147
-161 302 -311 322 -36 5 -45 11 -54 35 -11 28 -23 36 -36 22z"/>
<path d="M1980 2721 c-31 -58 16 -131 58 -89 8 8 15 8 25 0 11 -10 -12 -38
-123 -149 -128 -128 -138 -141 -146 -187 -13 -69 -44 -91 -129 -91 -58 0 -75
6 -189 64 -111 56 -130 62 -163 56 -74 -14 -134 -109 -119 -189 10 -51 57 -94
156 -142 111 -54 206 -79 302 -79 43 0 78 0 78 -1 0 -1 -9 -61 -20 -134 -12
-73 -21 -158 -21 -189 -1 -39 -12 -86 -39 -156 -46 -120 -129 -374 -165 -505
-70 -251 -132 -575 -121 -633 29 -154 264 -218 338 -92 9 17 35 122 58 235 69
347 170 701 170 598 0 -48 69 -238 125 -347 66 -126 160 -260 244 -347 66 -69
114 -90 177 -78 79 15 164 114 164 191 0 51 -22 93 -87 169 -222 258 -293 490
-273 894 8 174 49 506 61 493 3 -5 16 -46 29 -93 27 -105 33 -116 73 -140 41
-26 97 -25 147 0 69 35 95 98 79 188 -28 151 -112 342 -221 501 -34 51 -73
112 -86 135 -32 57 -65 89 -119 116 l-46 23 -43 -45 -43 -46 -3 36 c-4 44 -31
65 -51 38 -12 -17 -14 -17 -20 -2 -9 22 -44 20 -57 -3z"/>
<path d="M860 2405 l0 -25 412 2 411 3 2 23 2 22 -414 0 -413 0 0 -25z"/>
</g>
</svg>
